PathFileType	4	(X/Y/Z)	/Users/itak/Documents/Research/Walk-IL/dataset/trc/00211_00009.trc
DataRate	CameraRate	NumFrames	NumMarkers	Units	OrigDataRate	OrigDataStartFrame	OrigNumFrames
100.000000	100.000000	4	53	mm	100.000000	0	627
Frame#	Time	RPSI			LPSI			L3			STRN			T10			C7			CLAV			RBAK			LBAK			LSHO			LUPA			LAEL			LAOL			LWTS			LWPS			LFRA			LIFD			LHPS			RSHO			RUPA			RAEL			RAOL			RWTS			RWPS			RFRA			RIFD			RHTS			RHPS			RBHD			LFHD			RFHD			LBHD			LHIP			RHIP			RASI			LASI			LKNE			LTHI			LANK			LTIP			LTOE			LMT1			LMT5			LHEE			RKNE			RTHI			RANK			RTIP			RTOE			RMT1			RMT5			RHEE			LHTS			
		X1	Y1	Z1	X2	Y2	Z2	X3	Y3	Z3	X4	Y4	Z4	X5	Y5	Z5	X6	Y6	Z6	X7	Y7	Z7	X8	Y8	Z8	X9	Y9	Z9	X10	Y10	Z10	X11	Y11	Z11	X12	Y12	Z12	X13	Y13	Z13	X14	Y14	Z14	X15	Y15	Z15	X16	Y16	Z16	X17	Y17	Z17	X18	Y18	Z18	X19	Y19	Z19	X20	Y20	Z20	X21	Y21	Z21	X22	Y22	Z22	X23	Y23	Z23	X24	Y24	Z24	X25	Y25	Z25	X26	Y26	Z26	X27	Y27	Z27	X28	Y28	Z28	X29	Y29	Z29	X30	Y30	Z30	X31	Y31	Z31	X32	Y32	Z32	X33	Y33	Z33	X34	Y34	Z34	X35	Y35	Z35	X36	Y36	Z36	X37	Y37	Z37	X38	Y38	Z38	X39	Y39	Z39	X40	Y40	Z40	X41	Y41	Z41	X42	Y42	Z42	X43	Y43	Z43	X44	Y44	Z44	X45	Y45	Z45	X46	Y46	Z46	X47	Y47	Z47	X48	Y48	Z48	X49	Y49	Z49	X50	Y50	Z50	X51	Y51	Z51	X52	Y52	Z52	X53	Y53	Z53	

1	0	-1365.616455078125	1054.540649414062	-259.2882995605469	-1358.648315429688	1058.3154296875	-379.1982116699219	-1364.106079101562	1122.3115234375	-338.2371215820312	-1134.46728515625	1328.97705078125	-327.2539672851562	-1383.747314453125	1250.501342773438	-332.6689453125	-1341.682861328125	1516.091430664062	-335.7214660644531	-1169.137084960938	1443.666381835938	-327.7575988769531	-1408.506225585938	1371.75537109375	-267.863037109375	-1355.055541992188	1476.28662109375	-446.528564453125	-1264.669799804688	1484.572875976562	-500.0962829589844	-1283.555419921875	1363.884887695312	-578.24609375	-1252.087036132812	1154.283203125	-603.1761474609375	-1328.034301757812	1135.066650390625	-562.4141235351562	-1161.09765625	921.98486328125	-537.8912353515625	-1176.423828125	906.7161865234375	-619.068115234375	-1224.4072265625	1048.264404296875	-614.4222412109375	-1148.6689453125	725.8535766601562	-551.543701171875	-1157.761840820312	818.8099975585938	-615.3919067382812	-1290.675415039062	1481.040161132812	-163.9337768554688	-1309.50439453125	1414.890014648438	-98.8607177734375	-1313.364624023438	1134.762573242188	-54.81478118896484	-1342.095458984375	1126.283447265625	-144.8656768798828	-1167.13623046875	923.8728637695312	-94.13565063476562	-1219.158203125	909.4216918945312	-28.3859920501709	-1283.449096679688	1067.803588867188	-40.53560256958008	-1145.2783203125	728.7708129882812	-92.65083312988281	-1123.713500976562	803.9382934570312	-76.67214965820312	-1175.13134765625	803.953125	-24.99637222290039	-1321.955444335938	1663.44140625	-278.7066040039062	-1131.144165039062	1749.116333007812	-368.6705932617188	-1132.717407226562	1745.984375	-268.9807739257812	-1276.230712890625	1682.377807617188	-410.0608520507812	-1250.372314453125	993.3800048828125	-512.7960815429688	-1274.497436523438	1013.3837890625	-147.9482727050781	-1175.7705078125	1055.804931640625	-179.1087036132812	-1151.312377929688	1035.63671875	-460.1152648925781	-1233.766967773438	507.4756164550781	-459.2488403320312	-1227.427368164062	651.0137329101562	-494.3743896484375	-1322.926147460938	39.72306060791016	-440.3715209960938	-1287.314208984375	286.2625427246094	-463.5174560546875	-1110.796997070312	44.87541961669922	-376.9900817871094	-1180.281005859375	40.42834854125977	-337.0017700195312	-1194.5654296875	38.94525146484375	-453.093505859375	-1386.564208984375	48.86359405517578	-390.9413452148438	-1257.817749023438	520.002685546875	-183.5610504150391	-1224.360595703125	788.7327880859375	-136.201904296875	-1340.449462890625	41.87006378173828	-216.1937103271484	-1256.489013671875	404.8369750976562	-201.6174774169922	-1123.938110351562	47.48036956787109	-226.7700042724609	-1174.92138671875	43.32614898681641	-276.9974670410156	-1234.707153320312	41.74488830566406	-173.4246673583984	-1393.298095703125	40.13631820678711	-284.57470703125	-1122.31640625	822.259521484375	-556.4790649414062	
2	0.01	-1365.687255859375	1054.552978515625	-259.2278747558594	-1358.657348632812	1058.328247070312	-379.1137084960938	-1364.09716796875	1122.337036132812	-338.1407165527344	-1134.410888671875	1328.962036132812	-327.2108459472656	-1383.709838867188	1250.5380859375	-332.5620422363281	-1341.576293945312	1516.127807617188	-335.6090393066406	-1169.045166015625	1443.629150390625	-327.6844787597656	-1408.481323242188	1371.782592773438	-267.7804565429688	-1354.98388671875	1476.317016601562	-446.4248352050781	-1264.597778320312	1484.588989257812	-499.9974975585938	-1283.578979492188	1363.921752929688	-578.170654296875	-1252.283203125	1154.331298828125	-603.2026977539062	-1328.170043945312	1135.120361328125	-562.3818969726562	-1161.363403320312	921.9235229492188	-538.0792846679688	-1176.85693359375	906.7189331054688	-619.269775390625	-1224.575073242188	1048.276489257812	-614.489990234375	-1149.236206054688	725.7062377929688	-551.90234375	-1158.115112304688	818.804443359375	-615.6669311523438	-1290.5546875	1481.047729492188	-163.8292694091797	-1309.37646484375	1414.898193359375	-98.75418090820312	-1313.298461914062	1134.753295898438	-54.75160980224609	-1342.056640625	1126.28759765625	-144.8009796142578	-1167.125122070312	923.8689575195312	-94.12245178222656	-1219.102783203125	909.4064331054688	-28.36119079589844	-1283.364868164062	1067.793823242188	-40.46479034423828	-1145.265869140625	728.7658081054688	-92.67121887207031	-1123.644897460938	803.9430541992188	-76.67893981933594	-1175.094848632812	803.9376831054688	-25.00138664245605	-1321.815551757812	1663.433715820312	-278.600830078125	-1130.952026367188	1749.083618164062	-368.564453125	-1132.544311523438	1745.966064453125	-268.8897399902344	-1276.122314453125	1682.372314453125	-409.9556274414062	-1250.395263671875	993.38623046875	-512.7326049804688	-1274.495971679688	1013.385925292969	-147.8471527099609	-1175.760864257812	1055.802856445312	-179.03125	-1151.540771484375	1035.509155273438	-459.9215698242188	-1233.7412109375	507.4789123535156	-459.1912841796875	-1227.417114257812	651.0176391601562	-494.3035583496094	-1322.924194335938	39.72074890136719	-440.3687438964844	-1287.257446289062	286.238037109375	-463.4675903320312	-1110.820556640625	44.87738800048828	-376.993896484375	-1180.279052734375	40.42544937133789	-336.9973754882812	-1194.560913085938	38.94533157348633	-453.0868530273438	-1386.5654296875	48.8633918762207	-390.941650390625	-1257.793090820312	520.0103759765625	-183.4998016357422	-1224.37158203125	788.7200927734375	-136.1169281005859	-1340.446899414062	41.86708450317383	-216.1868743896484	-1256.449951171875	404.8093566894531	-201.5941619873047	-1123.938720703125	47.47887420654297	-226.7669830322266	-1174.928588867188	43.32498550415039	-276.9936828613281	-1234.705200195312	41.75180053710938	-173.4249420166016	-1393.320556640625	40.15248107910156	-284.5841369628906	-1122.588134765625	822.243408203125	-556.69482421875	
3	0.02	-1365.768920898438	1054.568359375	-259.1470031738281	-1358.67041015625	1058.34619140625	-379.0055541992188	-1364.07958984375	1122.371826171875	-338.0170288085938	-1134.338500976562	1328.942749023438	-327.15478515625	-1383.659545898438	1250.585083007812	-332.4251708984375	-1341.436157226562	1516.173828125	-335.4640502929688	-1168.933227539062	1443.585571289062	-327.5972900390625	-1408.448974609375	1371.818115234375	-267.6727600097656	-1354.888305664062	1476.35693359375	-446.2890014648438	-1264.50732421875	1484.609130859375	-499.8710632324219	-1283.604736328125	1363.967041015625	-578.073486328125	-1252.518798828125	1154.392456054688	-603.2308349609375	-1328.328369140625	1135.183959960938	-562.3405151367188	-1161.653686523438	921.8643188476562	-538.3048095703125	-1177.353393554688	906.732421875	-619.51025390625	-1224.768432617188	1048.294921875	-614.56982421875	-1149.8251953125	725.5665283203125	-552.3017578125	-1158.531616210938	818.8057250976562	-615.9841918945312	-1290.391967773438	1481.059204101562	-163.6941223144531	-1309.202392578125	1414.910766601562	-98.6153564453125	-1313.214965820312	1134.74365234375	-54.67295837402344	-1341.999267578125	1126.29541015625	-144.7152404785156	-1167.10107421875	923.8666381835938	-94.10844421386719	-1219.027954101562	909.3890991210938	-28.332763671875	-1283.254638671875	1067.782592773438	-40.37569046020508	-1145.231567382812	728.7686157226562	-92.70254516601562	-1123.5390625	803.952880859375	-76.69268035888672	-1175.036499023438	803.9204711914062	-25.01309967041016	-1321.638916015625	1663.435424804688	-278.4703674316406	-1130.710083007812	1749.044189453125	-368.4346618652344	-1132.3330078125	1745.943481445312	-268.7785949707031	-1275.984130859375	1682.36669921875	-409.8248596191406	-1250.4267578125	993.3941650390625	-512.6532592773438	-1274.474487304688	1013.389526367188	-147.7090301513672	-1175.75048828125	1055.798461914062	-178.9395141601562	-1151.751098632812	1035.384643554688	-459.7270202636719	-1233.719970703125	507.4833374023438	-459.1229553222656	-1227.406005859375	651.0233764648438	-494.2153930664062	-1322.922241210938	39.71977615356445	-440.3641662597656	-1287.19580078125	286.2101745605469	-463.408935546875	-1110.842529296875	44.87970733642578	-376.9970092773438	-1180.276123046875	40.42287063598633	-336.9931335449219	-1194.555908203125	38.94703674316406	-453.0804138183594	-1386.56640625	48.86300277709961	-390.9419250488281	-1257.767333984375	520.015380859375	-183.4252319335938	-1224.383911132812	788.7039794921875	-136.0142669677734	-1340.44677734375	41.86464309692383	-216.178466796875	-1256.416015625	404.78271484375	-201.5513916015625	-1123.939331054688	47.47683334350586	-226.7640991210938	-1174.9365234375	43.32381820678711	-276.9909057617188	-1234.701782226562	41.75900650024414	-173.4251251220703	-1393.344116210938	40.16821670532227	-284.5905151367188	-1122.90869140625	822.22705078125	-556.9654541015625	
4	0.03	-1365.854858398438	1054.585815429688	-259.0470581054688	-1358.687866210938	1058.369018554688	-378.8768920898438	-1364.050537109375	1122.415771484375	-337.8697204589844	-1134.252807617188	1328.919799804688	-327.0868530273438	-1383.59814453125	1250.640502929688	-332.2638244628906	-1341.265747070312	1516.227294921875	-335.2911376953125	-1168.808227539062	1443.53857421875	-327.5015563964844	-1408.408447265625	1371.861328125	-267.5416870117188	-1354.770141601562	1476.405395507812	-446.123779296875	-1264.402099609375	1484.632080078125	-499.7212829589844	-1283.630004882812	1364.01806640625	-577.9574584960938	-1252.77685546875	1154.46435546875	-603.2566528320312	-1328.496337890625	1135.253173828125	-562.2910766601562	-1161.938232421875	921.8179321289062	-538.5545043945312	-1177.866088867188	906.759521484375	-619.77197265625	-1224.971923828125	1048.320556640625	-614.6557006835938	-1150.366943359375	725.45263671875	-552.7102661132812	-1158.979370117188	818.8186645507812	-616.3199462890625	-1290.189453125	1481.075439453125	-163.5328826904297	-1308.984130859375	1414.927978515625	-98.44806671142578	-1313.118286132812	1134.734985351562	-54.58245468139648	-1341.923095703125	1126.307861328125	-144.6103057861328	-1167.060302734375	923.8671875	-94.09520721435547	-1218.934814453125	909.3712768554688	-28.30336380004883	-1283.12109375	1067.77099609375	-40.27191162109375	-1145.168579101562	728.78271484375	-92.74577331542969	-1123.390625	803.9694213867188	-76.71593475341797	-1174.95263671875	803.9031982421875	-25.03373718261719	-1321.43212890625	1663.452270507812	-278.321533203125	-1130.428588867188	1749.0009765625	-368.28955078125	-1132.094604492188	1745.91748046875	-268.65380859375	-1275.819458007812	1682.362426757812	-409.6743774414062	-1250.467041015625	993.4037475585938	-512.5613403320312	-1274.43359375	1013.394592285156	-147.5399932861328	-1175.739379882812	1055.791259765625	-178.8392181396484	-1151.919555664062	1035.276245117188	-459.5506591796875	-1233.70947265625	507.4887084960938	-459.0483703613281	-1227.397216796875	651.031494140625	-494.1151123046875	-1322.920654296875	39.72105407714844	-440.3576354980469	-1287.1376953125	286.1827087402344	-463.3461608886719	-1110.859497070312	44.88199615478516	-376.9988403320312	-1180.272583007812	40.42098999023438	-336.9898071289062	-1194.550903320312	38.95099639892578	-453.0750427246094	-1386.566772460938	48.86235427856445	-390.9421081542969	-1257.744506835938	520.015869140625	-183.3415374755859	-1224.3955078125	788.684814453125	-135.9012298583984	-1340.450073242188	41.86391448974609	-216.168212890625	-1256.393188476562	404.7601623535156	-201.4885864257812	-1123.940307617188	47.47467803955078	-226.7616271972656	-1174.944580078125	43.32301330566406	-276.9894714355469	-1234.698120117188	41.76586532592773	-173.4256439208984	-1393.366333007812	40.18162536621094	-284.59228515625	-1123.249755859375	822.2147827148438	-557.2794799804688	
